<svg xmlns="http://www.w3.org/2000/svg" xmlns:xlink="http://www.w3.org/1999/xlink" version="1.1" data-diagram-type="DESCRIPTION" style="width:409px;height:451px;background:#FFFFFF;" width="409px" height="451px" viewBox="0 0 409 451" zoomAndPan="magnify" preserveAspectRatio="none" contentStyleType="text/css"><?plantuml 1.2026.7beta6?><defs/><g font-family="sans-serif" lengthAdjust="spacing"><!--entity BTN--><g class="entity" data-qualified-name="BTN" id="ent0001" data-source-line="3"><rect x="7" y="7" width="116.582" height="45.609" fill="#F1F1F1" style="stroke:#181818;stroke-width:0.5;" rx="2.5" ry="2.5"/><text x="17" y="27.21" fill="#000" font-size="11" textLength="35.073">resetn</text><text x="17" y="40.015" fill="#000" font-size="11" textLength="96.582">(板载按钮，低有效)</text></g><!--entity LOCK--><g class="entity" data-qualified-name="LOCK" id="ent0002" data-source-line="4"><rect x="158.16" y="7" width="100.255" height="45.609" fill="#F1F1F1" style="stroke:#181818;stroke-width:0.5;" rx="2.5" ry="2.5"/><text x="168.16" y="27.21" fill="#000" font-size="11" textLength="80.255">clk_wiz_locked</text><text x="168.16" y="40.015" fill="#000" font-size="11" textLength="66.736">(MMCM锁定)</text></g><!--entity DDR--><g class="entity" data-qualified-name="DDR" id="ent0003" data-source-line="5"><rect x="293.23" y="7" width="102.119" height="45.609" fill="#F1F1F1" style="stroke:#181818;stroke-width:0.5;" rx="2.5" ry="2.5"/><text x="303.23" y="27.21" fill="#000" font-size="11" textLength="65.801">ddr_aresetn</text><text x="303.23" y="40.015" fill="#000" font-size="11" textLength="82.119">(MIG init_calib)</text></g><!--entity RST_SYS--><g class="entity" data-qualified-name="RST_SYS" id="ent0004" data-source-line="6"><rect x="168.86" y="126.61" width="78.862" height="45.609" fill="#F1F1F1" style="stroke:#181818;stroke-width:0.5;" rx="2.5" ry="2.5"/><text x="178.86" y="146.82" fill="#000" font-size="11" textLength="58.862">reset_sync</text><text x="178.86" y="159.625" fill="#000" font-size="11" textLength="50.51">u_rst_sys</text></g><!--entity RST_CPU--><g class="entity" data-qualified-name="RST_CPU" id="ent0005" data-source-line="7"><rect x="111.86" y="259.22" width="78.862" height="45.609" fill="#F1F1F1" style="stroke:#181818;stroke-width:0.5;" rx="2.5" ry="2.5"/><text x="121.86" y="279.43" fill="#000" font-size="11" textLength="58.862">reset_sync</text><text x="121.86" y="292.235" fill="#000" font-size="11" textLength="52.54">u_rst_cpu</text></g><!--entity SYS_RST--><g class="entity" data-qualified-name="SYS_RST" id="ent0006" data-source-line="8"><rect x="226.02" y="259.22" width="78.545" height="45.609" fill="#F1F1F1" style="stroke:#181818;stroke-width:0.5;" rx="2.5" ry="2.5"/><text x="236.02" y="279.43" fill="#000" font-size="11" textLength="58.545">sys_resetn</text><text x="236.02" y="292.235" fill="#000" font-size="11" textLength="58.529">(sys_clk域)</text></g><!--entity CPU_RST--><g class="entity" data-qualified-name="CPU_RST" id="ent0007" data-source-line="9"><rect x="111" y="391.83" width="80.575" height="45.609" fill="#F1F1F1" style="stroke:#181818;stroke-width:0.5;" rx="2.5" ry="2.5"/><text x="121" y="412.04" fill="#000" font-size="11" textLength="60.575">cpu_resetn</text><text x="121" y="424.845" fill="#000" font-size="11" textLength="60.559">(cpu_clk域)</text></g><!--link BTN to RST_SYS--><g class="link" data-entity-1="ent0001" data-entity-2="ent0004" id="lnk8" data-source-line="11" data-link-type="dependency"><path d="M92.19,52.93 C117.75,73.96 152.128,102.224 177.648,123.214" style="stroke:#181818;stroke-width:1;" fill="none" id="BTN-to-RST_SYS"/><polygon points="181.51,126.39,177.1,117.584,177.648,123.214,172.018,123.762,181.51,126.39" fill="#181818" style="stroke:#181818;stroke-width:1;stroke-linejoin:miter;stroke-miterlimit:10;"/><text x="142.29" y="93.82" fill="#000" font-size="11" textLength="24.224">AND</text></g><!--link LOCK to RST_SYS--><g class="link" data-entity-1="ent0002" data-entity-2="ent0004" id="lnk9" data-source-line="12" data-link-type="dependency"><path d="M208.29,52.93 C208.29,73.96 208.29,100.4 208.29,121.39" style="stroke:#181818;stroke-width:1;" fill="none" id="LOCK-to-RST_SYS"/><polygon points="208.29,126.39,212.29,117.39,208.29,121.39,204.29,117.39,208.29,126.39" fill="#181818" style="stroke:#181818;stroke-width:1;stroke-linejoin:miter;stroke-miterlimit:10;"/><text x="209.29" y="93.82" fill="#000" font-size="11" textLength="24.224">AND</text></g><!--link DDR to RST_SYS--><g class="link" data-entity-1="ent0003" data-entity-2="ent0004" id="lnk10" data-source-line="13" data-link-type="dependency"><path d="M318.71,52.93 C294.4,73.96 261.812,102.129 237.542,123.119" style="stroke:#181818;stroke-width:1;" fill="none" id="DDR-to-RST_SYS"/><polygon points="233.76,126.39,243.184,123.528,237.542,123.119,237.951,117.477,233.76,126.39" fill="#181818" style="stroke:#181818;stroke-width:1;stroke-linejoin:miter;stroke-miterlimit:10;"/><text x="281.29" y="93.82" fill="#000" font-size="11" textLength="24.224">AND</text></g><!--link RST_SYS to SYS_RST--><g class="link" data-entity-1="ent0004" data-entity-2="ent0006" id="lnk11" data-source-line="14" data-link-type="dependency"><path d="M217.96,172.57 C228.44,196.59 243.07,230.117 253.57,254.177" style="stroke:#181818;stroke-width:1;" fill="none" id="RST_SYS-to-SYS_RST"/><polygon points="255.57,258.76,255.636,248.911,253.57,254.177,248.304,252.111,255.57,258.76" fill="#181818" style="stroke:#181818;stroke-width:1;stroke-linejoin:miter;stroke-miterlimit:10;"/><text x="253.29" y="213.43" fill="#000" font-size="11" textLength="44">异步断言</text><text x="242.29" y="226.235" fill="#000" font-size="11" textLength="66">同步解除断言</text></g><!--link RST_SYS to RST_CPU--><g class="link" data-entity-1="ent0004" data-entity-2="ent0005" id="lnk12" data-source-line="15" data-link-type="dependency"><path d="M198.62,172.57 C188.14,196.59 173.51,230.117 163.01,254.177" style="stroke:#181818;stroke-width:1;" fill="none" id="RST_SYS-to-RST_CPU"/><polygon points="161.01,258.76,168.276,252.111,163.01,254.177,160.944,248.911,161.01,258.76" fill="#181818" style="stroke:#181818;stroke-width:1;stroke-linejoin:miter;stroke-miterlimit:10;"/></g><!--link RST_CPU to CPU_RST--><g class="link" data-entity-1="ent0005" data-entity-2="ent0007" id="lnk13" data-source-line="16" data-link-type="dependency"><path d="M151.29,305.18 C151.29,329.2 151.29,362.31 151.29,386.37" style="stroke:#181818;stroke-width:1;" fill="none" id="RST_CPU-to-CPU_RST"/><polygon points="151.29,391.37,155.29,382.37,151.29,386.37,147.29,382.37,151.29,391.37" fill="#181818" style="stroke:#181818;stroke-width:1;stroke-linejoin:miter;stroke-miterlimit:10;"/><text x="163.29" y="346.04" fill="#000" font-size="11" textLength="44">异步断言</text><text x="152.29" y="358.845" fill="#000" font-size="11" textLength="66">同步解除断言</text></g><?plantuml-src AyxEp2j8B4hCLKX9JKiipIbnoyyh2SwiIbKmDEJYAafDBadCIyz9LL0gIYrEBScBoTDuDdV_Yxrxd_LqlfoqxlsUdYTx-vxDwNmsjKDJII6nMC4fn0zPLt9ETdnvPbLyJdvoTceAKBUlhxFloocDJzVDWgZtyNVsHjQGab8KdmYtozVJNI4pBxCaFZan9pC9eiF59GZ3NV75bNd9CNcbyKN587OnM65GS4XyS6GmViN91QLmnSu1eSYAWUR4mrq2uW0zytJ-V8WhW0R70_MW-BMW5A4Un45M3pGRh9uB640AkYdvvNcwTZ0NAbWfEFgvS8620eSKqCyuP60yc2pKNK3PftkQdgrT-cpQsXSh6cBodaxe0V9UB5_ySkOIY1Y6LbWGG6cuEDJfH1W90000?></g></svg>